<svg class="360 degree icon" xmlns="http://www.w3.org/2000/svg" viewBox="0 0 60 60"><title>360 degree icon</title><path d="M31.9,24.75H27.2a4.69,4.69,0,0,1-4.7-4.7V5.85a4.69,4.69,0,0,1,4.7-4.7h7.1a2.43,2.43,0,0,1,2.4,2.4A2.43,2.43,0,0,1,34.3,6H27.2v4.7h4.7a4.69,4.69,0,0,1,4.7,4.7v4.7A4.69,4.69,0,0,1,31.9,24.75Zm-4.7-9.4v4.7h4.7v-4.7Z"/><path d="M50.8,24.75H46.1a4.69,4.69,0,0,1-4.7-4.7V5.85a4.69,4.69,0,0,1,4.7-4.7h4.7a4.69,4.69,0,0,1,4.7,4.7v14.2A4.69,4.69,0,0,1,50.8,24.75ZM46.1,5.85v14.2h4.7V5.85Z"/><path d="M15.4,1.15H5.9a2.43,2.43,0,0,0-2.4,2.4A2.43,2.43,0,0,0,5.9,6H13v4.7H5.9a2.4,2.4,0,1,0,0,4.8H13v4.7H5.9a2.4,2.4,0,1,0,0,4.8h9.4a2.43,2.43,0,0,0,2.4-2.4V3.45A2.26,2.26,0,0,0,15.4,1.15Z"/><path d="M30,31.75c-14,0-29,3.4-29,10.8,0,6.7,12.3,9.8,23.3,10.6l-1.5,1.5a2.42,2.42,0,0,0,0,3.5,2.34,2.34,0,0,0,1.7.7,2.19,2.19,0,0,0,1.7-.7l5.4-5.4a2.42,2.42,0,0,0,0-3.5l-5.3-5.5a2.47,2.47,0,0,0-3.5,3.5l.9.9c-12.3-1-17.8-4.4-17.8-5.6,0-1.7,8.4-5.9,24.1-5.9s24.1,4.2,24.1,5.9c0,1.1-4.7,4.4-16.5,5.5a2.46,2.46,0,1,0,.5,4.9c4.9-.5,20.9-2.6,20.9-10.4C58.9,35.15,43.9,31.75,30,31.75Z"/></svg>