<svg id="lieu-sculpture-list" data-name="lieu-sculpture-list" xmlns="http://www.w3.org/2000/svg" viewBox="0 0 20 20"><defs><style>.cls-1{fill:#fff;}</style></defs><title>lieu-sculpture</title><circle class="cls-1" cx="3" cy="3" r="0.5"/><path d="M3,2A1,1,0,1,0,4,3,1,1,0,0,0,3,2Z"/><circle class="cls-1" cx="7" cy="8" r="0.5"/><path d="M7,7A1,1,0,1,0,8,8,1,1,0,0,0,7,7Z"/><circle class="cls-1" cx="13" cy="4" r="0.5"/><path d="M13,3a1,1,0,1,0,1,1,1,1,0,0,0-1-1Z"/><circle class="cls-1" cx="3" cy="13" r="0.5"/><path d="M3,12a1,1,0,1,0,1,1,1,1,0,0,0-1-1Z"/><circle class="cls-1" cx="13" cy="9" r="0.5"/><path d="M13,8a1,1,0,1,0,1,1,1,1,0,0,0-1-1Z"/><circle class="cls-1" cx="17" cy="18" r="0.5"/><path d="M17,17a1,1,0,1,0,1,1,1,1,0,0,0-1-1Z"/><path class="cls-1" d="M10,14.5a.51.51,0,0,1-.34-.13A.52.52,0,0,1,9.5,14a.53.53,0,0,1,.13-.36A.52.52,0,0,1,10,13.5a.51.51,0,0,1,.34.13.52.52,0,0,1,.16.35.53.53,0,0,1-.13.36A.52.52,0,0,1,10,14.5Z"/><path d="M10,14h0m0-1a1,1,0,0,0-.73.32A1,1,0,0,0,10,15a1,1,0,0,0,.73-.32A1,1,0,0,0,10,13Z"/><circle class="cls-1" cx="18" cy="2" r="0.5"/><path d="M18,1a1,1,0,1,0,1,1,1,1,0,0,0-1-1Z"/><circle class="cls-1" cx="6" cy="16" r="0.5"/><path d="M6,15a1,1,0,1,0,1,1,1,1,0,0,0-1-1Z"/></svg>