<svg class="plan-icon" data-name="plan-icon" xmlns="http://www.w3.org/2000/svg" viewBox="0 0 60 60"><defs><style>.cls-1{fill:none;stroke-miterlimit:10;}</style></defs><title>Plan Icon</title><path class="cls-1" d="M56.58,4.19a1,1,0,0,0-.9-.14L38,10,21.23,6a.56.56,0,0,0-.13,0,.86.86,0,0,0-.32,0l-18,4A1,1,0,0,0,2,11V54a1,1,0,0,0,1,1l.22,0L21,51l16.81,3H38a1,1,0,0,0,.35-.06h0l18-7A1,1,0,0,0,57,46V5A1,1,0,0,0,56.58,4.19Z"/><line class="cls-1" x1="21.1" y1="6.03" x2="21.1" y2="51.02"/><line class="cls-1" x1="37.95" y1="9.96" x2="37.95" y2="53.41"/></svg>