<svg class="reset-icon" xmlns="http://www.w3.org/2000/svg" viewBox="0 0 60 60"><title>reset icon</title><path d="M34.4,28a3,3,0,0,1-2.13-5.12L46.68,8.4H40.1a3,3,0,1,1,0-6H53.92a3,3,0,0,1,1.95.73,3.39,3.39,0,0,1,.41.44,2.94,2.94,0,0,1,.61,1.61,1.93,1.93,0,0,1,0,.24V19.2a3,3,0,0,1-6,0V12.67L36.53,27.12A3,3,0,0,1,34.4,28Z"/><path d="M19.9,57.6H6.08a3,3,0,0,1-1.95-.74,2.72,2.72,0,0,1-.4-.43,2.88,2.88,0,0,1-.62-1.62,1.77,1.77,0,0,1,0-.23V40.8a3,3,0,0,1,6,0v6.53L23.47,32.88a3,3,0,0,1,4.26,4.24L13.32,51.6H19.9a3,3,0,0,1,0,6Z"/></svg>