<?xml version="1.0" encoding="utf-8"?>
<!-- Generator: Adobe Illustrator 22.1.0, SVG Export Plug-In . SVG Version: 6.00 Build 0)  -->
<svg version="1.1" id="Calque_1" xmlns="http://www.w3.org/2000/svg" xmlns:xlink="http://www.w3.org/1999/xlink" x="0px" y="0px"
	 viewBox="0 0 24 29" style="enable-background:new 0 0 24 29;" xml:space="preserve">
<g>
	<g>
		<path d="M21.6,28.5H5.4c-1,0-1.9-0.8-1.9-1.9v-5.9h3v4.8h14V3.4h-14v4.8h-3V2.3c0-1,0.8-1.9,1.9-1.9h16.3c1,0,1.9,0.8,1.9,1.9
			v24.3C23.5,27.6,22.7,28.5,21.6,28.5z"/>
	</g>
	<g>
		<path d="M14.5,15.7H2c-0.7,0-1.2-0.6-1.2-1.3c0-0.7,0.6-1.2,1.2-1.2h12.5c0.7,0,1.2,0.6,1.2,1.2C15.8,15.1,15.2,15.7,14.5,15.7z"
			/>
		<g>
			<path d="M14.5,15.7c-0.3,0-0.6-0.1-0.9-0.4L9.2,11c-0.5-0.5-0.5-1.3,0-1.8s1.3-0.5,1.8,0l4.4,4.4c0.5,0.5,0.5,1.3,0,1.8
				C15.1,15.6,14.8,15.7,14.5,15.7z"/>
			<path d="M10.1,20.1c-0.3,0-0.6-0.1-0.9-0.4c-0.5-0.5-0.5-1.3,0-1.8l4.4-4.4c0.5-0.5,1.3-0.5,1.8,0s0.5,1.3,0,1.8L11,19.7
				C10.8,20,10.4,20.1,10.1,20.1z"/>
		</g>
	</g>
</g>
</svg>
